<?xml version="1.0" encoding="UTF-8" standalone="no"?>
<!-- Created with Inkscape (http://www.inkscape.org/) -->

<svg
   width="30mm"
   height="25mm"
   viewBox="0 0 30 25"
   version="1.1"
   id="svg122"
   inkscape:version="1.1.2 (0a00cf5339, 2022-02-04)"
   sodipodi:docname="ThePanoply.svg"
   inkscape:export-filename="/home/mikael/source/HTML/ThePanoply.github.io/images/loggor/thepanoply.png"
   inkscape:export-xdpi="96"
   inkscape:export-ydpi="96"
   xmlns:inkscape="http://www.inkscape.org/namespaces/inkscape"
   xmlns:sodipodi="http://sodipodi.sourceforge.net/DTD/sodipodi-0.dtd"
   xmlns="http://www.w3.org/2000/svg"
   xmlns:svg="http://www.w3.org/2000/svg">
  <sodipodi:namedview
     id="namedview124"
     pagecolor="#ffffff"
     bordercolor="#666666"
     borderopacity="1.0"
     inkscape:pageshadow="2"
     inkscape:pageopacity="0.0"
     inkscape:pagecheckerboard="0"
     inkscape:document-units="mm"
     showgrid="false"
     inkscape:zoom="2.1166667"
     inkscape:cx="157.32283"
     inkscape:cy="154.48819"
     inkscape:window-width="1920"
     inkscape:window-height="1151"
     inkscape:window-x="0"
     inkscape:window-y="25"
     inkscape:window-maximized="1"
     inkscape:current-layer="layer1"
     width="209mm" />
  <defs
     id="defs119" />
  <g
     inkscape:label="Layer 1"
     inkscape:groupmode="layer"
     id="layer1">
    <path
       sodipodi:nodetypes="cccccccccccccccc"
       inkscape:connector-curvature="0"
       id="rect5065-9"
       d="m 22.314188,18.587725 c 0.15394,-0.19644 0.465611,-0.29564 0.786837,-0.388953 0.337179,-0.117182 0.503489,0.05407 0.749091,0.09145 0.192262,-1.918044 0.4323,-3.828653 0.328318,-5.792763 0.165564,0.110744 0.05429,-0.04366 0.511292,0.180369 0.283612,0.166309 0.417539,0.404349 0.541626,0.647104 0.273894,0.450898 0.516824,0.9129 0.5862,1.437188 -0.03929,0.328779 -0.06174,0.658929 -0.229187,0.977225 l -0.449472,0.415393 c -0.0078,-0.40119 -0.0055,-0.802428 0.06999,-1.237903 -0.01683,-0.615079 -0.372671,-0.893434 -0.563174,-1.376918 l -0.41733,5.161886 -0.328012,0.758856 c -0.464391,0.11153 -0.863888,0.31932 -1.47497,0.21323 -0.242273,-0.16478 -0.287946,-0.33848 -0.357817,-0.51106 0.04248,-0.19953 0.01926,-0.41198 0.246613,-0.575104 z"
       style="color:#000000;display:inline;overflow:visible;visibility:visible;fill:#000000;fill-opacity:1;fill-rule:nonzero;stroke:none;stroke-width:0.06999;marker:none;enable-background:accumulate" />
    <path
       sodipodi:nodetypes="cccccccccccccccccccccccccc"
       inkscape:connector-curvature="0"
       id="rect3921-3"
       d="m 23.840114,3.1373995 -1.942965,3.756893 c -0.237495,-0.130001 -0.471982,-0.26271 -0.845367,-0.269941 -0.288444,0.154104 -0.387609,0.374176 -0.539438,0.575902 0.01939,0.185947 0.08566,0.366676 0.262178,0.535155 0.367922,0.225581 0.786662,0.312586 0.930812,0.230502 0.357363,-0.345289 0.490541,-0.542758 0.653691,-0.83275 l 1.195109,-2.364721 1.276784,0.576686 c 0.601258,0.240726 1.009653,0.593309 1.355159,0.784484 l -1.131062,2.151076 c -0.133202,0.481957 -0.696235,-0.01984 -1.04593,-0.03342 -0.195143,0.0034 -0.383765,0.05455 -0.466682,0.287745 -0.03646,0.27536 0.136707,0.489595 0.185129,0.569648 0.365299,0.180154 0.511704,0.196503 0.767511,0.294719 0.283443,-0.07642 0.387432,-0.245658 0.54425,-0.387567 l 0.279318,-0.450247 1.911438,-4.001381 c -1.083345,-0.504523 -1.663415,-0.6923 -3.213759,-1.494808 -0.09619,-0.03036 -0.13044,0.02917 -0.176176,0.07202 z m 0.06181,0.760884 c 0.234236,0.02601 0.460296,0.03844 0.862815,0.344013 l 1.864944,1.029542 -0.174916,0.374147 -2.739384,-1.333103 z"
       style="color:#000000;display:inline;overflow:visible;visibility:visible;fill:#000000;fill-opacity:1;fill-rule:nonzero;stroke:none;stroke-width:0.264583;marker:none;enable-background:accumulate" />
    <g
       style="fill:#000000"
       transform="matrix(-0.24791476,-0.04169496,-0.04169496,0.24791476,217.74154,-82.037728)"
       id="g4362">
      <g
         style="fill:#000000"
         id="g4279"
         transform="matrix(1,0,0,0.96845376,-0.98214285,16.40479)">
        <path
           sodipodi:nodetypes="cccccccccccccccccccccsccccccccccccc"
           inkscape:connector-curvature="0"
           id="path3144-9"
           style="font-style:normal;font-weight:bold;font-size:48.9263px;line-height:150%;font-family:'Stranded BRK';-inkscape-font-specification:'Stranded BRK';text-align:center;letter-spacing:0.868037px;word-spacing:0px;text-anchor:middle;fill:#000000;fill-opacity:1;stroke:none"
           d="m 741.48521,536.76675 c -0.96817,-1.01749 -1.87982,-2.0191 -2.73492,-3.00492 -0.71555,-1.38239 -1.38603,-3.0944 -2.01147,-5.13612 -0.58131,-2.09156 -1.04155,-4.67819 -1.38083,-7.75994 0.2226,-1.80451 0.15808,-3.28488 -0.19352,-4.44105 -0.31979,-1.27169 -0.23149,-3.36271 0.26491,-6.27301 l 5.48523,-19.93425 c 0.63951,-1.439 1.3232,-2.92795 2.05107,-4.46682 0.74374,-1.59651 1.5255,-3.27584 2.34523,-5.0379 0.26853,-0.42265 0.55914,-0.87031 0.87186,-1.343 0.31268,-0.4725 0.65541,-0.99893 1.02819,-1.57925 l 2.58379,-2.91775 c 2.12706,-1.64528 4.56952,-2.61131 7.32737,-2.89804 2.70128,-0.30244 4.98122,0.42845 6.83987,2.19264 1.54763,1.67736 2.83382,3.53044 3.85859,5.55924 1.05296,2.03683 2.07502,4.40725 3.06624,7.11115 0.13248,1.84169 0.18287,3.81591 0.15114,5.92269 -0.004,2.11471 -0.20402,4.88998 -0.60143,8.32569 -1.81263,6.587 -4.29031,12.27233 -7.43318,17.05605 -1.55117,2.42872 -3.0864,4.79961 -4.6057,7.11271 -1.51937,2.31311 -3.03075,4.5973 -4.53416,6.85265 -1.53174,1.25177 -3.51132,2.47171 -5.93876,3.65974 -2.42744,1.18797 -4.57401,1.52115 -6.43964,0.99946 m -2.44591,-7.71463 c 2.86643,2.25432 5.41063,1.80252 7.63279,-1.35601 2.28804,-3.13977 4.51011,-5.13526 6.66621,-5.98647 1.8048,-3.71085 3.4507,-7.10282 4.93761,-10.17591 1.59006,-3.18953 3.03975,-6.12754 4.34909,-8.8142 2.6556,-5.5081 4.03502,-11.80885 4.13824,-18.90234 -1.03269,-1.16049 -2.06526,-2.32107 -3.09777,-3.48181 -1.03265,-1.16056 -2.0983,-2.33035 -3.1969,-3.50955 -1.59023,0.86402 -3.232,1.78621 -4.92534,2.76646 -1.59024,0.86398 -3.18036,1.72787 -4.77048,2.59168 -3.55202,7.72882 -6.65372,16.01937 -9.30516,24.87169 -2.68861,8.98743 -3.49817,16.31955 -2.42829,21.99646" />
        <path
           sodipodi:nodetypes="ccccccccsscccccccc"
           inkscape:connector-curvature="0"
           id="path4579-8"
           d="m 750.30985,481.41642 -1.62316,2.06518 2.61359,2.82745 2.37422,2.58861 -1.12044,1.55831 -1.34307,1.4204 -7.07869,-0.6785 -0.68773,2.45466 c 0,0 0.20462,0.22967 2.14077,0.74189 2.29052,0.60598 6.02353,0.46165 7.47374,0.52928 0.18212,0.008 0.48639,-0.0643 0.48639,-0.0643 l 0.32701,-0.25031 1.55778,-2.47195 1.61768,-2.44234 0.23021,-0.39809 -0.30256,-0.32017 -3.18301,-4.30806 z"
           style="color:#000000;font-style:normal;font-variant:normal;font-weight:normal;font-stretch:normal;font-size:medium;line-height:normal;font-family:Sans;-inkscape-font-specification:Sans;text-indent:0;text-align:start;text-decoration:none;text-decoration-line:none;letter-spacing:normal;word-spacing:normal;text-transform:none;writing-mode:lr-tb;direction:ltr;baseline-shift:baseline;text-anchor:start;display:inline;overflow:visible;visibility:visible;fill:#000000;fill-opacity:1;stroke:none;stroke-width:1px;marker:none;enable-background:accumulate" />
        <path
           sodipodi:nodetypes="ccccccccccccc"
           inkscape:connector-curvature="0"
           id="path4581-6"
           d="m 751.87948,475.76347 c 0.49593,2.20838 3.62276,9.76706 3.62276,9.76706 l 0.0733,0.32643 0.28375,0.11392 4.87821,2.36726 0.43614,0.21743 2.02959,-1.00911 3.4882,-6.4234 -1.18546,-1.82935 -4.97283,5.30031 -2.92821,-1.82339 c -0.10928,-0.37132 -2.31526,-5.89075 -2.69164,-7.56669 z"
           style="color:#000000;font-style:normal;font-variant:normal;font-weight:normal;font-stretch:normal;font-size:medium;line-height:normal;font-family:Sans;-inkscape-font-specification:Sans;text-indent:0;text-align:start;text-decoration:none;text-decoration-line:none;letter-spacing:normal;word-spacing:normal;text-transform:none;writing-mode:lr-tb;direction:ltr;baseline-shift:baseline;text-anchor:start;display:inline;overflow:visible;visibility:visible;fill:#000000;fill-opacity:1;stroke:none;stroke-width:1px;marker:none;enable-background:accumulate" />
        <path
           sodipodi:nodetypes="cccccccccccccccccc"
           inkscape:connector-curvature="0"
           id="path4583-5"
           d="m 736.94822,525.72431 1.44094,1.6601 2.72635,-2.49612 0.0968,-0.0858 2.84242,-1.46381 c 1.75087,0.0811 1.14087,1.28262 1.93369,1.8659 l -1.66015,6.06405 2.02798,0.55596 2.38549,-8.02589 0.096,-0.40086 -0.30025,-0.81906 -3.61619,-2.08889 -0.23976,-0.17807 -0.33577,0.2229 -3.98893,2.29086 -0.0551,0.0177 -0.0572,0.0754 z"
           style="color:#000000;font-style:normal;font-variant:normal;font-weight:normal;font-stretch:normal;font-size:medium;line-height:normal;font-family:Sans;-inkscape-font-specification:Sans;text-indent:0;text-align:start;text-decoration:none;text-decoration-line:none;letter-spacing:normal;word-spacing:normal;text-transform:none;writing-mode:lr-tb;direction:ltr;baseline-shift:baseline;text-anchor:start;display:inline;overflow:visible;visibility:visible;fill:#000000;fill-opacity:1;stroke:none;stroke-width:1px;marker:none;enable-background:accumulate" />
        <path
           sodipodi:nodetypes="ccccccscccccccccccccccc"
           inkscape:connector-curvature="0"
           id="path4585-0"
           d="m 748.47476,518.70924 0.1172,-0.46333 1.35852,-5.80487 -0.30628,-0.96516 -0.41844,-0.16492 c 0,0 -2.37149,-1.06116 -4.72724,-2.11816 -1.17786,-0.52853 -2.31536,-1.04963 -3.19601,-1.46363 -0.44031,-0.20698 -0.83002,-0.40021 -1.07495,-0.52561 -0.12232,-0.0629 -0.18024,-0.11319 -0.22367,-0.13907 0.0284,0.006 0.0454,-0.007 0.11004,0.24718 l -2.26438,2.06286 c 0.0691,0.22115 0.16848,0.19854 0.2125,0.22987 0.0436,0.0317 0.054,0.0506 0.0931,0.0732 0.0778,0.0453 0.18546,0.0978 0.29399,0.15241 0.2171,0.10913 0.48171,0.23846 0.82881,0.39973 0.69416,0.32255 1.63008,0.7425 2.54068,1.14759 1.64542,0.73206 2.35844,1.41284 2.65933,1.54387 l 0.14403,3.94352 -6.30276,1.35016 0.34111,2.79145 c 2.62987,-0.50128 3.81195,-0.19618 8.25078,-1.70502 l 1.56334,-0.59213 z"
           style="color:#000000;font-style:normal;font-variant:normal;font-weight:normal;font-stretch:normal;font-size:medium;line-height:normal;font-family:Sans;-inkscape-font-specification:Sans;text-indent:0;text-align:start;text-decoration:none;text-decoration-line:none;letter-spacing:normal;word-spacing:normal;text-transform:none;writing-mode:lr-tb;direction:ltr;baseline-shift:baseline;text-anchor:start;display:inline;overflow:visible;visibility:visible;fill:#000000;fill-opacity:1;stroke:none;stroke-width:1px;marker:none;enable-background:accumulate" />
        <path
           sodipodi:nodetypes="ccccccccccccccccccc"
           inkscape:connector-curvature="0"
           id="path4589-2"
           d="m 758.61178,499.13746 0.33004,0.23678 3.82479,3.145 0.94766,0.55466 0.39662,-1.17208 0.61012,-9.45356 -0.16092,-0.81522 -0.86836,-0.0461 -4.27908,1.1101 -0.60409,0.15671 -0.007,0.5929 -0.19309,5.26193 0.004,0.42884 z m 2.2995,-0.83762 c -0.24533,-1.34501 -0.75084,-2.87093 -0.1153,-3.60611 l 1.37062,0.21683 c 0.62217,1.18637 0.54056,2.55529 0.0851,4.02122 z"
           style="color:#000000;font-style:normal;font-variant:normal;font-weight:normal;font-stretch:normal;font-size:medium;line-height:normal;font-family:Sans;-inkscape-font-specification:Sans;text-indent:0;text-align:start;text-decoration:none;text-decoration-line:none;letter-spacing:normal;word-spacing:normal;text-transform:none;writing-mode:lr-tb;direction:ltr;baseline-shift:baseline;text-anchor:start;display:inline;overflow:visible;visibility:visible;fill:#000000;fill-opacity:1;stroke:none;stroke-width:1px;marker:none;enable-background:accumulate" />
        <path
           sodipodi:nodetypes="ccccccccccccccccccc"
           inkscape:connector-curvature="0"
           id="path4589-1-8"
           d="m 754.14932,509.10379 0.50389,0.10417 4.92757,1.07219 1.33008,0.40659 -0.75118,1.37558 -6.99704,8.47373 -0.89744,0.54987 -0.78832,-0.76927 -0.95772,-5.31648 -0.37264,-0.69716 0.54602,-0.51568 3.05425,-4.31859 0.40285,-0.36445 z m 0.58685,3.07777 c -1.15449,0.7695 -1.47328,1.14319 -1.46041,2.3534 l 0.11759,1.50583 c 1.3576,-0.26271 2.25564,-1.38546 2.90936,-2.96519 z"
           style="color:#000000;font-style:normal;font-variant:normal;font-weight:normal;font-stretch:normal;font-size:medium;line-height:normal;font-family:Sans;-inkscape-font-specification:Sans;text-indent:0;text-align:start;text-decoration:none;text-decoration-line:none;letter-spacing:normal;word-spacing:normal;text-transform:none;writing-mode:lr-tb;direction:ltr;baseline-shift:baseline;text-anchor:start;display:inline;overflow:visible;visibility:visible;fill:#000000;fill-opacity:1;stroke:none;stroke-width:1px;marker:none;enable-background:accumulate" />
        <path
           sodipodi:nodetypes="cccccccccccccccccc"
           inkscape:connector-curvature="0"
           id="path4583-5-6"
           d="m 743.74223,494.09239 -1.29244,2.38809 4.10433,2.01943 0.14229,0.073 2.95617,2.61013 c 0.67911,2.04343 -0.9864,1.87668 -1.31394,3.04429 l -7.779,0.78478 0.24971,2.5717 10.3788,-0.82281 0.50817,-0.0676 0.81908,-0.7073 0.82995,-5.0723 0.101,-0.35384 -0.40726,-0.28617 -4.42348,-3.55807 -0.0451,-0.0552 -0.11288,-0.0323 z"
           style="color:#000000;font-style:normal;font-variant:normal;font-weight:normal;font-stretch:normal;font-size:medium;line-height:normal;font-family:Sans;-inkscape-font-specification:Sans;text-indent:0;text-align:start;text-decoration:none;text-decoration-line:none;letter-spacing:normal;word-spacing:normal;text-transform:none;writing-mode:lr-tb;direction:ltr;baseline-shift:baseline;text-anchor:start;display:inline;overflow:visible;visibility:visible;fill:#000000;fill-opacity:1;stroke:none;stroke-width:1px;marker:none;enable-background:accumulate" />
        <path
           sodipodi:nodetypes="ccccccccccccccccccc"
           inkscape:connector-curvature="0"
           id="path4589-2-0"
           d="m 757.20946,508.54756 0.40487,-0.0327 3.22382,0.23175 2.44894,-1.01738 -0.0952,-0.62813 -3.30528,-5.03902 -2.52256,-1.1652 -1.49311,0.46015 -2.21452,1.75948 -0.35953,0.51012 0.37799,0.45684 3.25474,4.13906 0.28031,0.32457 z m 1.2127,-2.12572 c -1.05676,-0.86747 -2.42897,-1.70473 -2.41945,-2.67649 l 1.1858,-0.72074 c 1.24168,0.5028 2.06448,1.59989 2.6648,3.01269 z"
           style="color:#000000;font-style:normal;font-variant:normal;font-weight:normal;font-stretch:normal;font-size:medium;line-height:normal;font-family:Sans;-inkscape-font-specification:Sans;text-indent:0;text-align:start;text-decoration:none;text-decoration-line:none;letter-spacing:normal;word-spacing:normal;text-transform:none;writing-mode:lr-tb;direction:ltr;baseline-shift:baseline;text-anchor:start;display:inline;overflow:visible;visibility:visible;fill:#000000;fill-opacity:1;stroke:none;stroke-width:1px;marker:none;enable-background:accumulate" />
      </g>
      <path
         d="m 742.94042,530.24808 c 0.12927,0.006 4.1773,0.5532 7.63706,3.7987 4.23598,3.97367 8.95143,0.5162 11.20559,-1.64453 2.39667,-2.29732 7.42446,-6.60176 10.23698,-14.14607 1.41228,-3.7883 3.75471,-9.29773 4.66521,-14.93739 0.9105,-5.63965 0.38907,-11.40952 0.6193,-13.19333 0.92095,-7.13524 -15.10952,-6.07416 -14.79724,-11.29484 0.31812,-5.3182 1.4e-4,2.76573 -0.16385,-3.70212 2.43768,0.7107 16.30019,4.75128 17.34467,8.169 0.13962,2.32787 1.35078,4.95506 1.31734,7.61801 -0.005,2.67298 0.56169,8.31759 0.14292,12.6603 -1.91005,8.32591 -3.66147,14.72116 -6.97326,20.76772 -1.63454,3.06987 -11.36866,12.29119 -12.96962,15.21491 -2.03149,0.26533 -5.10534,2.27977 -7.32823,2.10561 -4.91683,-3.81076 -10.62655,-3.8741 -13.22059,-5.43697"
         style="font-style:normal;font-weight:bold;font-size:48.9263px;line-height:150%;font-family:'Stranded BRK';-inkscape-font-specification:'Stranded BRK';text-align:center;letter-spacing:0.868037px;word-spacing:0px;text-anchor:middle;fill:#000000;fill-opacity:1;stroke:none"
         id="path3144-9-2"
         inkscape:connector-curvature="0"
         sodipodi:nodetypes="csssssscccccccc" />
    </g>
    <path
       sodipodi:nodetypes="ccccccccc"
       inkscape:connector-curvature="0"
       id="path3021-6-5-5-4"
       d="m 15.113799,17.633876 c 0.275066,0.08655 0.301765,-0.0052 0.524489,0.07251 l 3.222284,1.504583 0.27919,0.0945 c 0.05149,0.24025 -0.165989,0.21074 -0.277375,0.28762 l -0.261351,0.16439 -2.558848,-1.297249 -1.296207,-0.506977 z"
       style="color:#000000;font-style:normal;font-variant:normal;font-weight:normal;font-stretch:normal;font-size:medium;line-height:normal;font-family:Sans;-inkscape-font-specification:Sans;text-indent:0;text-align:start;text-decoration:none;text-decoration-line:none;letter-spacing:normal;word-spacing:normal;text-transform:none;writing-mode:lr-tb;direction:ltr;baseline-shift:baseline;text-anchor:start;display:inline;overflow:visible;visibility:visible;fill:#000000;fill-opacity:1;stroke:none;stroke-width:0.561658;marker:none;enable-background:accumulate" />
    <path
       sodipodi:nodetypes="ccccccccc"
       inkscape:connector-curvature="0"
       id="path3021-6-5-5-4-8"
       d="m 15.698801,14.24164 0.196807,0.2047 c 1.130655,0.675481 2.505245,0.849677 3.888486,1.006091 l 0.289193,0.05695 -0.06309,0.48487 -0.411464,0.0341 -2.714299,-0.747366 -1.34465,-0.5339 z"
       style="color:#000000;font-style:normal;font-variant:normal;font-weight:normal;font-stretch:normal;font-size:medium;line-height:normal;font-family:Sans;-inkscape-font-specification:Sans;text-indent:0;text-align:start;text-decoration:none;text-decoration-line:none;letter-spacing:normal;word-spacing:normal;text-transform:none;writing-mode:lr-tb;direction:ltr;baseline-shift:baseline;text-anchor:start;display:inline;overflow:visible;visibility:visible;fill:#000000;fill-opacity:1;stroke:none;stroke-width:0.561658;marker:none;enable-background:accumulate" />
    <path
       sodipodi:nodetypes="ccccccccc"
       inkscape:connector-curvature="0"
       id="path3021-6-5-5-4-6"
       d="m 13.576623,6.1030615 0.400222,-0.115001 c 1.10069,-0.438965 -0.0013,0.184464 1.140555,-0.557459 l 1.671016,-1.067334 0.800086,-0.416052 0.08857,0.452067 c -0.84356,0.520332 -1.719178,0.940945 -2.526271,1.574731 l -1.231294,0.613479 z"
       style="color:#000000;font-style:normal;font-variant:normal;font-weight:normal;font-stretch:normal;font-size:medium;line-height:normal;font-family:Sans;-inkscape-font-specification:Sans;text-indent:0;text-align:start;text-decoration:none;text-decoration-line:none;letter-spacing:normal;word-spacing:normal;text-transform:none;writing-mode:lr-tb;direction:ltr;baseline-shift:baseline;text-anchor:start;display:inline;overflow:visible;visibility:visible;fill:#000000;fill-opacity:1;stroke:none;stroke-width:0.561658;marker:none;enable-background:accumulate" />
    <path
       sodipodi:nodetypes="ccccccccc"
       inkscape:connector-curvature="0"
       id="path3021-6-5-5-4-5"
       d="m 19.509412,7.8714355 c -0.665731,0.192619 -1.346396,0.228822 -1.990601,0.646951 l -2.029187,0.766178 -0.267708,0.123336 -0.233029,-0.429848 0.313412,-0.268771 2.646434,-1.15038 1.393309,-0.190206 z"
       style="color:#000000;font-style:normal;font-variant:normal;font-weight:normal;font-stretch:normal;font-size:medium;line-height:normal;font-family:Sans;-inkscape-font-specification:Sans;text-indent:0;text-align:start;text-decoration:none;text-decoration-line:none;letter-spacing:normal;word-spacing:normal;text-transform:none;writing-mode:lr-tb;direction:ltr;baseline-shift:baseline;text-anchor:start;display:inline;overflow:visible;visibility:visible;fill:#000000;fill-opacity:1;stroke:none;stroke-width:0.561658;marker:none;enable-background:accumulate" />
    <path
       sodipodi:nodetypes="ccccccccc"
       inkscape:connector-curvature="0"
       id="path3021-6-5-5-4-0"
       d="m 15.661494,12.019877 0.276424,-0.243197 2.372265,-0.4225 1.778248,-0.153771 0.147736,0.466104 -0.358503,0.204795 -2.854814,0.28387 -1.365322,0.270346 c -0.07955,-0.112932 -0.07777,-0.248275 0.004,-0.405647 z"
       style="color:#000000;font-style:normal;font-variant:normal;font-weight:normal;font-stretch:normal;font-size:medium;line-height:normal;font-family:Sans;-inkscape-font-specification:Sans;text-indent:0;text-align:start;text-decoration:none;text-decoration-line:none;letter-spacing:normal;word-spacing:normal;text-transform:none;writing-mode:lr-tb;direction:ltr;baseline-shift:baseline;text-anchor:start;display:inline;overflow:visible;visibility:visible;fill:#000000;fill-opacity:1;stroke:none;stroke-width:0.561658;marker:none;enable-background:accumulate" />
  </g>
</svg>
