<?xml version="1.0" encoding="UTF-8" standalone="no"?>
<!-- Created with Inkscape (http://www.inkscape.org/) -->

<svg
   inkscape:export-ydpi="600"
   inkscape:export-xdpi="600"
   inkscape:export-filename="G:\Dropbox\Södertälje Oljefatssällskap\steelpanmedia\the_panoply_special_o.png"
   sodipodi:docname="the_panoply_header.svg"
   inkscape:version="1.2 (1:1.2+202206011327+fc4e4096c5)"
   version="1.1"
   id="svg5361"
   height="69.163231"
   width="430.33487"
   xmlns:inkscape="http://www.inkscape.org/namespaces/inkscape"
   xmlns:sodipodi="http://sodipodi.sourceforge.net/DTD/sodipodi-0.dtd"
   xmlns:xlink="http://www.w3.org/1999/xlink"
   xmlns="http://www.w3.org/2000/svg"
   xmlns:svg="http://www.w3.org/2000/svg"
   xmlns:rdf="http://www.w3.org/1999/02/22-rdf-syntax-ns#"
   xmlns:cc="http://creativecommons.org/ns#"
   xmlns:dc="http://purl.org/dc/elements/1.1/">
  <sodipodi:namedview
     id="base"
     pagecolor="#ffffff"
     bordercolor="#666666"
     borderopacity="1.0"
     inkscape:pageopacity="0.0"
     inkscape:pageshadow="2"
     inkscape:zoom="1.4142136"
     inkscape:cx="322.44068"
     inkscape:cy="1.0606601"
     inkscape:document-units="px"
     inkscape:current-layer="layer1"
     showgrid="false"
     inkscape:window-width="1848"
     inkscape:window-height="1016"
     inkscape:window-x="72"
     inkscape:window-y="27"
     inkscape:window-maximized="1"
     fit-margin-top="0"
     fit-margin-left="0"
     fit-margin-right="0"
     fit-margin-bottom="0"
     inkscape:showpageshadow="2"
     inkscape:pagecheckerboard="0"
     inkscape:deskcolor="#d1d1d1" />
  <defs
     id="defs5363">
    <linearGradient
       gradientUnits="userSpaceOnUse"
       id="SVGID_1_-2-6-0"
       y2="53.006302"
       x2="46.492699"
       y1="0"
       x1="46.492699"
       gradientTransform="matrix(0.12905307,0,0,0.12905307,39.295568,1037.2723)">
      <stop
         offset="0"
         style="stop-color:#f79810;stop-opacity:1"
         id="stop2461-3-0-6" />
      <stop
         offset="1"
         style="stop-color:#f8310e;stop-opacity:1"
         id="stop2463-2-3-2" />
    </linearGradient>
    <linearGradient
       id="path1950_1_-19-6-27"
       gradientUnits="userSpaceOnUse"
       x1="-1313.1793"
       y1="916.68579"
       x2="-1364.8761"
       y2="1067.3752"
       gradientTransform="matrix(-0.5915,0,0,0.5915,-332.8726,-247.899)">
      <stop
         offset="0"
         style="stop-color:#FFFFFF"
         id="stop3090-87-3-3" />
      <stop
         offset="1"
         style="stop-color:#FFFFFF;stop-opacity:0"
         id="stop3092-0-0-8" />
    </linearGradient>
    <linearGradient
       id="rect3708_1_-95-5-6"
       gradientUnits="userSpaceOnUse"
       x1="500.92181"
       y1="547.50897"
       x2="500.92181"
       y2="445.58469">
      <stop
         offset="0"
         style="stop-color:#932420"
         id="stop3104-60-1-57" />
      <stop
         offset="1"
         style="stop-color:#CB322C"
         id="stop3106-85-0-8" />
    </linearGradient>
    <clipPath
       clipPathUnits="userSpaceOnUse"
       id="clipPath4057-6-4-5">
      <rect
         style="fill:#000000;fill-opacity:0.235294;stroke-width:8;stroke-miterlimit:4;stroke-dasharray:none"
         id="rect4059-42-4-1"
         width="514.77374"
         height="517.60217"
         x="-8.0369873"
         y="542.16339" />
    </clipPath>
    <linearGradient
       id="linearGradient3769-5-259-4-27">
      <stop
         id="stop3771-2-2-7-60"
         offset="0"
         style="stop-color:#526ea4;stop-opacity:1;" />
      <stop
         id="stop3773-8-4-4-2"
         offset="1"
         style="stop-color:#2c416e;stop-opacity:1;" />
    </linearGradient>
    <clipPath
       clipPathUnits="userSpaceOnUse"
       id="clipPath4739-1-3-85">
      <rect
         ry="60"
         rx="71.685394"
         y="-11.285703"
         x="37.961163"
         height="498.9285"
         width="596.63843"
         id="rect4741-9-6-9"
         style="fill:url(#radialGradient4743);fill-opacity:1;fill-rule:evenodd;stroke:none" />
    </clipPath>
    <linearGradient
       inkscape:collect="always"
       xlink:href="#SVGID_1_-2-6-0"
       id="linearGradient5765"
       gradientUnits="userSpaceOnUse"
       gradientTransform="matrix(0.12905307,0,0,0.12905307,39.295568,1037.2723)"
       x1="46.492699"
       y1="0"
       x2="46.492699"
       y2="53.006302" />
    <linearGradient
       inkscape:collect="always"
       xlink:href="#path1950_1_-19-6-27"
       id="linearGradient5767"
       gradientUnits="userSpaceOnUse"
       gradientTransform="matrix(-0.5915,0,0,0.5915,-332.8726,-247.899)"
       x1="-1313.1793"
       y1="916.68579"
       x2="-1364.8761"
       y2="1067.3752" />
    <linearGradient
       inkscape:collect="always"
       xlink:href="#rect3708_1_-95-5-6"
       id="linearGradient5769"
       gradientUnits="userSpaceOnUse"
       x1="500.92181"
       y1="547.50897"
       x2="500.92181"
       y2="445.58469" />
    <radialGradient
       inkscape:collect="always"
       xlink:href="#linearGradient3769-5-259-4-27"
       id="radialGradient5771"
       gradientUnits="userSpaceOnUse"
       gradientTransform="matrix(1.4762245,-0.01630119,0.01684499,1.5254519,-248.34766,-170.78924)"
       cx="332.6116"
       cy="768.62415"
       fx="332.6116"
       fy="768.62415"
       r="249.69035" />
    <linearGradient
       inkscape:collect="always"
       xlink:href="#path1950_1_-19-6-27"
       id="linearGradient16675"
       gradientUnits="userSpaceOnUse"
       gradientTransform="matrix(-0.5915,0,0,0.5915,-332.8726,-247.899)"
       x1="-1313.1793"
       y1="916.68579"
       x2="-1364.8761"
       y2="1067.3752" />
    <linearGradient
       inkscape:collect="always"
       xlink:href="#rect3708_1_-95-5-6"
       id="linearGradient16677"
       gradientUnits="userSpaceOnUse"
       x1="500.92181"
       y1="547.50897"
       x2="500.92181"
       y2="445.58469" />
    <radialGradient
       inkscape:collect="always"
       xlink:href="#linearGradient3769-5-259-4-27"
       id="radialGradient16679"
       gradientUnits="userSpaceOnUse"
       gradientTransform="matrix(1.4762245,-0.01630119,0.01684499,1.5254519,-248.34766,-170.78924)"
       cx="332.6116"
       cy="768.62415"
       fx="332.6116"
       fy="768.62415"
       r="249.69035" />
    <linearGradient
       id="linearGradient3769-5-259-4-27-648">
      <stop
         id="stop4005"
         offset="0"
         style="stop-color:#6c6c6c;stop-opacity:1;" />
      <stop
         id="stop4007"
         offset="1"
         style="stop-color:#404040;stop-opacity:1;" />
    </linearGradient>
    <linearGradient
       id="linearGradient3769-5-259-4-27-648-617">
      <stop
         id="stop4240"
         offset="0"
         style="stop-color:#616161;stop-opacity:1;" />
      <stop
         id="stop4242"
         offset="1"
         style="stop-color:#3a3a3a;stop-opacity:1;" />
    </linearGradient>
    <linearGradient
       id="linearGradient3769-5-259-4-27-648-617-865">
      <stop
         id="stop4482"
         offset="0"
         style="stop-color:#575757;stop-opacity:1;" />
      <stop
         id="stop4484"
         offset="1"
         style="stop-color:#343434;stop-opacity:1;" />
    </linearGradient>
    <linearGradient
       id="linearGradient3769-5-259-4-27-648-617-865-937">
      <stop
         id="stop4732"
         offset="0"
         style="stop-color:#4e4e4e;stop-opacity:1;" />
      <stop
         id="stop4734"
         offset="1"
         style="stop-color:#2f2f2f;stop-opacity:1;" />
    </linearGradient>
    <linearGradient
       id="linearGradient3769-5-259-4-27-648-617-865-937-422">
      <stop
         id="stop4990"
         offset="0"
         style="stop-color:#464646;stop-opacity:1;" />
      <stop
         id="stop4992"
         offset="1"
         style="stop-color:#2a2a2a;stop-opacity:1;" />
    </linearGradient>
    <linearGradient
       id="linearGradient3769-5-259-4-27-648-617-865-937-422-995">
      <stop
         id="stop5256"
         offset="0"
         style="stop-color:#3f3f3f;stop-opacity:1;" />
      <stop
         id="stop5258"
         offset="1"
         style="stop-color:#262626;stop-opacity:1;" />
    </linearGradient>
    <linearGradient
       inkscape:collect="always"
       xlink:href="#path1950_1_-19-6-27-90"
       id="linearGradient3888-986"
       gradientUnits="userSpaceOnUse"
       gradientTransform="matrix(-0.5915,0,0,0.5915,-332.8726,-247.899)"
       x1="-1313.1793"
       y1="916.68579"
       x2="-1364.8761"
       y2="1067.3752" />
    <linearGradient
       id="path1950_1_-19-6-27-90"
       gradientUnits="userSpaceOnUse"
       x1="-1313.1793"
       y1="916.68579"
       x2="-1364.8761"
       y2="1067.3752"
       gradientTransform="matrix(-0.5915,0,0,0.5915,-332.8726,-247.899)">
      <stop
         offset="0"
         style="stop-color:#ffffff"
         id="stop5530" />
      <stop
         offset="1"
         style="stop-color:#ffffff;stop-opacity:0"
         id="stop5532" />
    </linearGradient>
    <linearGradient
       id="rect3708_1_-95-5-6-480"
       gradientUnits="userSpaceOnUse"
       x1="500.92181"
       y1="547.50897"
       x2="500.92181"
       y2="445.58469">
      <stop
         offset="0"
         style="stop-color:#000000"
         id="stop5536" />
      <stop
         offset="1"
         style="stop-color:#000000"
         id="stop5538" />
    </linearGradient>
  </defs>
  <metadata
     id="metadata5366">
    <rdf:RDF>
      <cc:Work
         rdf:about="">
        <dc:format>image/svg+xml</dc:format>
        <dc:type
           rdf:resource="http://purl.org/dc/dcmitype/StillImage" />
      </cc:Work>
    </rdf:RDF>
  </metadata>
  <g
     inkscape:label="Layer 1"
     inkscape:groupmode="layer"
     id="layer1"
     transform="translate(-211.1428,-421.66595)">
    <rect
       y="242.23048"
       x="683.80334"
       height="223.22835"
       width="347.24408"
       id="rect4261-5-6-2"
       style="fill:#fe7405;fill-opacity:1;stroke:none" />
    <path
       d="m 315.69239,476.32465 c 0.24466,-2.30501 0.42321,-4.66319 0.53565,-7.07456 0.1125,-2.43787 0.11904,-4.88927 0.0196,-7.35421 -0.0729,-2.49135 -0.26498,-4.98303 -0.57636,-7.47506 -0.31137,-2.49198 -0.75529,-4.97109 -1.33176,-7.43732 -1.00706,-0.003 -2.10677,-0.0453 -3.29913,-0.12806 -1.16586,-0.0826 -2.34441,-0.37724 -3.53564,-0.88398 0.48042,-1.27078 0.89476,-2.60801 1.24303,-4.01172 0.37477,-1.40357 0.94837,-2.83313 1.72081,-4.28871 1.93426,0.1377 3.84209,0.2488 5.72351,0.33329 1.90789,0.0846 3.82909,0.15601 5.76358,0.21413 1.93446,0.0582 3.88216,0.12965 5.84308,0.21434 1.98739,0.0848 4.02778,0.18304 6.12115,0.29459 l -0.0275,10.2959 -7.31445,-0.0195 c -0.13776,1.9608 -0.20932,3.94825 -0.21467,5.96235 0.0212,1.98771 0.13503,4.0154 0.34156,6.08308 0.20647,2.06771 0.33347,4.1352 0.38098,6.20245 0.0476,2.04077 0.002,4.09455 -0.13569,6.16132 -0.26602,0.37032 -0.53199,0.72738 -0.79791,1.0712 -0.23945,0.34389 -0.47882,0.66127 -0.71809,0.95214 -0.71556,-0.002 -1.471,0.0491 -2.26632,0.15297 -0.76877,0.0774 -1.5641,0.18135 -2.38599,0.31167 -0.82185,0.10381 -1.65694,0.20759 -2.50526,0.31134 -0.84828,0.0772 -1.70968,0.11469 -2.58423,0.11236"
       style="font-style:normal;font-weight:bold;font-size:48.9263px;line-height:150%;font-family:'Stranded BRK';-inkscape-font-specification:'Stranded BRK';text-align:center;letter-spacing:0.868037px;word-spacing:0px;text-anchor:middle;fill:#000000;fill-opacity:1;stroke:none"
       id="path3132-3"
       inkscape:connector-curvature="0" />
    <path
       d="m 354.28416,461.56003 c -0.39676,-0.29256 -0.80672,-0.59842 -1.22988,-0.91759 -0.39662,-0.34557 -0.79322,-0.69115 -1.18982,-1.03675 -0.26532,0.10531 -0.53058,0.19737 -0.79579,0.27615 -0.23867,0.0524 -0.46407,0.10478 -0.67621,0.15721 -0.26807,1.13887 -0.44349,2.31774 -0.52623,3.53658 -0.0562,1.19246 -0.0198,2.45139 0.10919,3.77681 0.12897,1.32545 0.21829,2.61102 0.26799,3.85674 0.0762,1.2458 0.11263,2.47823 0.1094,3.69729 -0.90143,0.13011 -1.81602,0.23368 -2.74378,0.31072 -0.9012,0.0506 -1.84201,0.0481 -2.82242,-0.008 -1.93435,-0.11117 -3.89568,-0.0369 -5.884,0.22282 -1.45223,-11.95619 -1.41958,-24.19995 0.0979,-36.7313 0.74233,-0.10399 1.45807,-0.18159 2.14726,-0.23279 0.71575,-0.0776 1.43148,-0.14191 2.14717,-0.19304 0.71575,-0.0776 1.44472,-0.14187 2.18692,-0.19293 0.74225,-0.0775 1.53758,-0.18138 2.386,-0.31166 -0.006,2.25268 0.0805,4.58507 0.2596,6.99718 0.17907,2.41218 0.26529,4.86383 0.25866,7.35496 0.98104,-0.18288 1.7374,-0.57839 2.26907,-1.18654 0.4785,-0.55523 1.38069,-0.97686 2.70656,-1.26487 l 1.47085,0.004 c 1.21835,0.2683 2.26414,0.65536 3.13737,1.1612 0.87319,0.50589 1.8124,1.10469 2.81765,1.79639 0.23645,0.7692 0.59238,1.4592 1.06781,2.06998 0.50188,0.61091 1.13576,1.42091 1.90165,2.43 0.20408,2.96877 0.42107,6.07006 0.65099,9.30388 0.25644,3.20742 0.5258,6.54737 0.80809,10.01985 l -10.97169,-0.0292 0.0396,-14.86743"
       style="font-style:normal;font-weight:bold;font-size:48.9263px;line-height:150%;font-family:'Stranded BRK';-inkscape-font-specification:'Stranded BRK';text-align:center;letter-spacing:0.868037px;word-spacing:0px;text-anchor:middle;fill:#000000;fill-opacity:1;stroke:none"
       id="path3134-6"
       inkscape:connector-curvature="0" />
    <path
       d="m 382.82311,476.50367 c -0.84806,-0.002 -1.64254,-0.2164 -2.38344,-0.6424 -0.37047,-0.213 -0.79397,-0.41289 -1.2705,-0.59968 -0.44997,-0.21321 -0.95304,-0.38682 -1.50921,-0.52081 -0.60849,-0.39915 -1.217,-0.78505 -1.82554,-1.1577 -0.58198,-0.39907 -1.16396,-0.79816 -1.74594,-1.19724 -0.26431,-0.26572 -0.54187,-0.53148 -0.83267,-0.79727 -0.29074,-0.29229 -0.58145,-0.59784 -0.87212,-0.91664 -1.53081,-2.36274 -2.42444,-5.14782 -2.68091,-8.35523 -0.25647,-3.2074 0.0696,-6.24099 0.97834,-9.10079 0.47859,-0.58173 0.9572,-1.17675 1.43586,-1.78503 0.47865,-0.60825 0.9573,-1.21651 1.43597,-1.8248 0.45122,-0.2638 0.90249,-0.54086 1.3538,-0.8312 0.45131,-0.29029 0.94233,-0.56725 1.47307,-0.83089 0.55731,-0.29 1.16762,-0.57989 1.83095,-0.86967 0.66338,-0.31622 1.43278,-0.6322 2.30819,-0.94792 l 7.07594,0.0189 c 1.29694,0.61303 2.52753,1.26562 3.69179,1.95773 1.16421,0.69219 2.24876,1.45039 3.25367,2.27459 1.00491,0.79776 2.089,1.72822 3.25227,2.79137 1.16329,1.0367 2.41894,2.23263 3.76695,3.58779 -0.10661,0.21176 -0.19989,0.41027 -0.27986,0.59554 -0.0799,0.15882 -0.15992,0.33087 -0.23989,0.51616 -3.26221,0.91888 -6.20717,2.14336 -8.83491,3.67344 -1.30066,0.7651 -2.68076,1.51673 -4.1403,2.25487 -1.43309,0.73824 -2.94562,1.46301 -4.53762,2.17431 l -0.005,1.78886 c 0.87412,0.16134 1.70868,0.25633 2.50366,0.28494 0.82154,0.002 1.64323,-0.0486 2.46509,-0.15244 0.84838,-0.13024 1.71014,-0.3002 2.58529,-0.50989 0.9016,-0.20961 1.86961,-0.47203 2.90405,-0.78731 1.19155,0.37421 2.3424,1.11933 3.45253,2.23536 0.60795,0.58467 1.20279,1.12955 1.78452,1.63462 0.58166,0.50509 1.17667,0.98371 1.78504,1.43587 l -0.003,1.11306 c -1.48532,0.44657 -2.97058,0.87989 -4.45578,1.29997 -1.45867,0.39364 -2.94376,0.7607 -4.45524,1.10119 -1.51153,0.34049 -3.03612,0.61469 -4.57377,0.82262 -1.5376,0.18141 -3.10145,0.26999 -4.69154,0.26575 M 378.131,461.98142 c 1.51292,-0.87051 2.84034,-1.74153 3.98225,-2.61306 1.14189,-0.8715 1.99231,-1.75704 2.55126,-2.65663 -0.60912,-0.16062 -1.13888,-0.26803 -1.58925,-0.32226 -0.45033,-0.0807 -0.87425,-0.12156 -1.27176,-0.12265 -0.39754,-10e-4 -0.79517,0.0377 -1.1929,0.11607 -0.37117,0.052 -0.76898,0.15698 -1.19342,0.31484 -0.87604,0.55423 -1.31548,1.36136 -1.31829,2.42141 0.0251,0.53013 0.0369,1.03369 0.0357,1.5107 -10e-4,0.45055 -0.002,0.90107 -0.004,1.35158"
       style="font-style:normal;font-weight:bold;font-size:48.9263px;line-height:150%;font-family:'Stranded BRK';-inkscape-font-specification:'Stranded BRK';text-align:center;letter-spacing:0.868037px;word-spacing:0px;text-anchor:middle;fill:#000000;fill-opacity:1;stroke:none"
       id="path3136-7"
       inkscape:connector-curvature="0" />
    <path
       d="m 439.72317,476.6554 c -1.50933,-0.48106 -3.23119,-0.76391 -5.16559,-0.84858 -1.96092,-0.0847 -3.78943,-0.12936 -5.48553,-0.13389 -0.36311,-2.96917 -0.52749,-5.92455 -0.49314,-8.86618 0.0609,-2.96803 0.3472,-5.97523 0.85887,-9.02159 0.51165,-3.04632 0.86426,-6.07984 1.05783,-9.10057 0.19363,-3.04716 0.24152,-6.09474 0.14364,-9.14275 2.04098,-0.12702 4.09514,-0.22756 6.16249,-0.30158 2.0674,-0.10046 4.17448,-0.17435 6.32128,-0.22167 4.29367,-0.14752 8.58513,0.53972 12.8744,2.06173 0.81905,0.92978 1.65151,1.80656 2.49741,2.63034 1.7926,3.55605 2.37875,7.36063 1.75844,11.41374 -0.62039,4.05314 -2.06027,7.34878 -4.31967,9.88692 -0.29296,0.52927 -0.86369,0.88552 -1.71222,1.06875 -0.87501,0.15669 -1.82991,0.47217 -2.86472,0.94643 -1.56362,-0.004 -3.02064,-0.22006 -4.37108,-0.6477 -1.32397,-0.42754 -2.90096,-0.37875 -4.73097,0.14639 -0.004,1.48411 0.33666,2.94262 1.0219,4.37553 0.68521,1.43294 1.02546,3.03721 1.02074,4.81281 l -0.59883,0.95247 -3.97525,-0.0106 v 0 m 4.63111,-22.3287 c 0.50416,-0.23716 1.00836,-0.48757 1.51261,-0.75127 0.50423,-0.26366 1.00846,-0.52733 1.51272,-0.79103 0.16033,-0.50308 0.32068,-1.00619 0.48105,-1.50932 0.16034,-0.50308 0.3207,-1.00619 0.48107,-1.50932 -0.2372,-0.50414 -0.48762,-1.00835 -0.75127,-1.51261 -0.2372,-0.50414 -0.47436,-1.0083 -0.71152,-1.51251 -1.03422,0.2358 -1.86867,0.10106 -2.50335,-0.40419 -0.60821,-0.50514 -1.29761,-0.37446 -2.06818,0.392 -0.16073,0.63565 -0.28176,1.29788 -0.36308,1.98667 -0.0813,0.66237 -0.14931,1.32473 -0.20406,1.98711 -0.0283,0.66248 -0.0433,1.31175 -0.045,1.94775 -0.002,0.60957 -0.003,1.1661 -0.004,1.66962 l 2.66341,0.007"
       style="font-style:normal;font-weight:bold;font-size:48.9263px;line-height:150%;font-family:'Stranded BRK';-inkscape-font-specification:'Stranded BRK';text-align:center;letter-spacing:0.868037px;word-spacing:0px;text-anchor:middle;fill:#000000;fill-opacity:1;stroke:none"
       id="path3138-5"
       inkscape:connector-curvature="0" />
    <path
       d="m 474.16032,476.2702 c -0.74134,-0.26699 -1.64169,-0.53441 -2.70105,-0.80226 -1.03286,-0.26777 -2.03885,-0.66798 -3.01801,-1.20063 -0.76664,-0.71758 -1.32158,-1.31536 -1.66483,-1.79331 -0.36975,-0.47801 -0.8048,-1.31398 -1.30515,-2.5079 0.002,-0.74204 -0.0751,-1.64331 -0.23131,-2.70381 -0.12968,-1.06041 -0.19321,-2.0809 -0.1906,-3.06147 0.107,-0.37073 0.20078,-0.75476 0.28135,-1.15208 0.10706,-0.39723 0.20091,-0.80776 0.28155,-1.23159 0.16127,-0.84761 0.62678,-1.49567 1.39653,-1.94416 2.17702,-1.45178 4.69676,-2.22686 7.55923,-2.32526 1.43122,-0.0492 2.83566,0.008 4.21334,0.17025 1.40421,0.13627 2.78166,0.37847 4.13235,0.72657 0.0801,-0.23829 0.14701,-0.47662 0.20067,-0.71502 0.0801,-0.23828 0.14701,-0.47662 0.20067,-0.71501 -0.0786,-0.31821 -0.15744,-0.59669 -0.23629,-0.83544 -0.0524,-0.23863 -0.10485,-0.43754 -0.15742,-0.59671 -0.26439,-0.2392 -0.51553,-0.47839 -0.75339,-0.71756 -0.23782,-0.26563 -0.47567,-0.51803 -0.71353,-0.75721 -1.90623,-0.7206 -3.95985,-0.81884 -6.1609,-0.29469 -1.11378,0.26207 -2.20088,0.45793 -3.26129,0.5876 -1.03393,0.12977 -2.06766,0.19326 -3.10123,0.19049 0.69038,-0.50167 1.10357,-1.40163 1.23955,-2.69989 0.13603,-1.3247 0.68207,-2.35682 1.63811,-3.09635 2.65143,-0.46993 5.23662,-0.94007 7.75556,-1.41041 2.57191,-0.47015 5.2883,-0.44965 8.14915,0.0614 0.44973,0.29275 0.89944,0.59872 1.34915,0.91791 0.47622,0.29282 0.97895,0.59893 1.50816,0.91833 0.23651,0.74272 0.63237,1.36657 1.18758,1.87156 0.55531,0.45203 0.97715,1.27472 1.26551,2.46804 0.075,1.69634 0.11022,3.3793 0.1058,5.04888 0.0221,1.6432 0.0309,3.29959 0.0265,4.96917 -0.004,1.66962 0.004,3.35251 0.0262,5.04868 0.022,1.66967 0.0836,3.41896 0.18477,5.24786 -0.60956,-0.002 -1.24574,0.0497 -1.90854,0.15392 -0.63628,0.0778 -1.2991,0.18205 -1.98847,0.31272 -0.66285,0.10424 -1.35219,0.2084 -2.06799,0.31251 -0.71577,0.0776 -1.43143,0.11544 -2.14695,0.11353 -0.10497,-0.39781 -0.20991,-0.79561 -0.31483,-1.19342 -0.0784,-0.39774 -0.15691,-0.79547 -0.23534,-1.19321 l -1.43109,-0.004 c -0.15945,0.15858 -0.35875,0.35682 -0.59788,0.5947 -0.23917,0.23788 -0.51821,0.52866 -0.83714,0.87233 -1.21965,0.20876 -2.40035,0.7224 -3.5421,1.54091 -1.1152,0.79208 -2.49403,1.06667 -4.13649,0.82377 m 4.39461,-8.17735 c 0.90169,-0.23611 1.6572,-0.31359 2.26653,-0.23248 0.63582,0.0812 1.32507,0.004 2.06777,-0.23299 0.13306,-0.21166 0.26617,-0.43657 0.39933,-0.67474 0.15963,-0.23808 0.33256,-0.48939 0.51879,-0.75392 -0.26376,-0.47773 -0.51425,-0.95543 -0.75148,-1.4331 -0.23718,-0.50415 -0.47436,-1.00832 -0.71152,-1.5125 -0.47683,-0.0808 -0.9669,-0.16158 -1.4702,-0.24244 -0.47683,-0.0808 -0.9404,-0.1615 -1.3907,-0.24222 -0.47768,0.23725 -0.95538,0.48774 -1.4331,0.75148 -0.47768,0.23726 -0.95535,0.47449 -1.43301,0.71173 -0.002,0.76856 0.12826,1.59046 0.39096,2.46571 0.28903,0.92834 0.80458,1.3935 1.54663,1.39547"
       style="font-style:normal;font-weight:bold;font-size:48.9263px;line-height:150%;font-family:'Stranded BRK';-inkscape-font-specification:'Stranded BRK';text-align:center;letter-spacing:0.868037px;word-spacing:0px;text-anchor:middle;fill:#000000;fill-opacity:1;stroke:none"
       id="path3140-3"
       inkscape:connector-curvature="0" />
    <path
       d="m 514.88887,476.85584 c -0.60219,-2.75779 -0.77997,-5.66021 -0.53331,-8.70727 0.2732,-3.07347 0.25489,-6.14773 -0.0549,-9.22279 -0.39634,-0.45157 -0.77942,-0.90312 -1.14923,-1.35466 -0.34332,-0.45143 -0.6999,-0.90291 -1.06971,-1.35445 -0.55761,0.39607 -1.11516,0.77885 -1.67268,1.14837 -0.53095,0.34313 -1.0487,0.69952 -1.5532,1.06919 -0.007,2.67668 0.0123,5.31366 0.0584,7.91095 0.0462,2.57081 0.22423,5.35398 0.53427,8.34951 l -1.11604,1.1101 -9.73936,-0.026 c -0.78353,-4.32188 -1.10264,-8.88105 -0.95734,-13.67751 0.0859,-2.38492 0.10535,-4.74353 0.0586,-7.07584 -0.0203,-2.33219 -0.0936,-4.66454 -0.21986,-6.99707 1.40664,-0.76477 2.97105,-1.06537 4.69324,-0.9018 1.74867,0.16371 3.45814,0.12851 5.12839,-0.10558 0.3433,0.45148 0.69987,0.90296 1.06971,1.35445 0.36981,0.45154 0.75287,0.9031 1.14921,1.35465 0.37214,-0.423 0.71762,-0.77985 1.03643,-1.07056 0.34529,-0.29057 0.66398,-0.54149 0.95607,-0.75275 0.53115,-0.42258 1.47324,-0.8971 2.82625,-1.42357 l 4.88955,0.013 c 0.79397,0.39968 1.60125,0.7861 2.42184,1.15929 0.82052,0.37324 1.65438,0.73325 2.50153,1.08 0.47652,0.18681 0.81948,0.77077 1.02891,1.75187 0.1047,0.47733 0.24912,0.98126 0.43325,1.51176 0.18413,0.50404 0.42127,1.02147 0.71141,1.55225 l -0.0609,22.85768 c -0.9541,-0.003 -1.89491,-0.005 -2.82243,-0.008 -0.90109,-0.002 -1.81547,0.0217 -2.74314,0.0722 -0.90115,0.0241 -1.82885,0.0746 -2.7831,0.15159 -0.95422,0.0505 -1.9615,0.12728 -3.02183,0.23045"
       style="font-style:normal;font-weight:bold;font-size:48.9263px;line-height:150%;font-family:'Stranded BRK';-inkscape-font-specification:'Stranded BRK';text-align:center;letter-spacing:0.868037px;word-spacing:0px;text-anchor:middle;fill:#000000;fill-opacity:1;stroke:none"
       id="path3142-5"
       inkscape:connector-curvature="0" />
    <path
       d="m 561.87771,485.528 c 0.008,-3.0477 0.0958,-6.12168 0.2631,-9.22195 0.19378,-3.10019 0.46724,-6.26643 0.82038,-9.49872 0.37965,-3.2322 0.69294,-6.42484 0.93986,-9.57791 0.247,-3.17954 0.44095,-6.346 0.58187,-9.49936 1.5113,-0.26096 3.12832,-0.41566 4.85107,-0.4641 1.74925,-0.0483 3.53818,-0.0701 5.36681,-0.0652 0.0525,0.18568 0.10493,0.39785 0.15731,0.63647 0.0524,0.23869 0.13108,0.53042 0.23618,0.87519 0.29278,-0.47622 0.87666,-0.79269 1.75166,-0.94939 0.92811,-0.20952 1.85665,-0.57806 2.78563,-1.10566 l 3.06095,0.008 c 0.52952,0.18697 1.0458,0.37385 1.54886,0.56068 0.50302,0.18688 1.00605,0.37373 1.50911,0.56056 0.47588,0.42532 0.96503,0.85066 1.46746,1.276 0.50243,0.3989 1.00488,0.81101 1.5073,1.23635 1.29191,2.49465 2.0794,5.33245 2.36246,8.5134 0.15475,1.59054 0.32277,3.1811 0.50407,4.77167 0.20774,1.59068 0.44191,3.22117 0.70251,4.89148 -0.1869,0.50304 -0.37375,1.00607 -0.56057,1.50911 -0.16031,0.4766 -0.32063,0.96646 -0.48095,1.46956 -0.42547,0.52891 -0.86416,1.05778 -1.31608,1.5866 -0.42539,0.50241 -0.85076,1.00481 -1.2761,1.50721 -2.28193,1.02749 -4.68011,0.94158 -7.19457,-0.25771 -2.51449,-1.19928 -4.65815,-2.31807 -6.431,-3.35638 -0.21753,2.06657 -0.36916,4.26582 -0.45487,6.59775 -0.0858,2.35843 -0.27753,4.69008 -0.57519,6.99495 -1.98905,0.52473 -3.93734,0.67854 -5.84489,0.46145 -1.8812,-0.16403 -3.97532,0.0159 -6.28237,0.53979 M 577.687,460.32698 c 0.50373,-0.0781 1.00744,-0.14305 1.51113,-0.19473 0.50372,-0.0781 1.00747,-0.15631 1.51123,-0.23449 0.47849,-0.55524 0.73213,-1.25686 0.76091,-2.10487 0.0553,-0.87439 -0.0485,-1.69622 -0.31144,-2.4655 -0.23783,-0.26563 -0.54207,-0.4652 -0.91272,-0.59872 -0.37069,-0.13348 -0.768,-0.21404 -1.19194,-0.2417 -0.39741,-0.0541 -0.80821,-0.0419 -1.23243,0.0364 -0.42419,0.0519 -0.83521,0.14357 -1.23308,0.27499 -0.24135,1.05945 -0.5218,1.88026 -0.84137,2.46243 -0.29315,0.60878 -0.16245,1.28492 0.39213,2.02843 0.238,0.18617 0.48926,0.37235 0.75381,0.55856 0.26457,0.15973 0.52916,0.31945 0.79377,0.47914"
       style="font-style:normal;font-weight:bold;font-size:48.9263px;line-height:150%;font-family:'Stranded BRK';-inkscape-font-specification:'Stranded BRK';text-align:center;letter-spacing:0.868037px;word-spacing:0px;text-anchor:middle;fill:#000000;fill-opacity:1;stroke:none"
       id="path3146-6"
       inkscape:connector-curvature="0" />
    <path
       d="m 596.69478,477.07399 c 0.83731,-5.90767 1.09208,-12.00241 0.76431,-18.28424 -0.17711,-3.15416 -0.36753,-6.28189 -0.57127,-9.38317 -0.20375,-3.10123 -0.4472,-6.21584 -0.73038,-9.34385 1.67094,-0.49904 3.46033,-0.69303 5.36817,-0.58198 1.98727,0.13785 3.9228,-0.20151 5.80662,-1.01808 -0.28128,6.0947 0.0868,12.17785 1.10416,18.24946 0.52196,3.02262 0.85833,6.08448 1.00908,9.18558 0.17723,3.10121 0.19529,6.26822 0.0542,9.50106 l -3.33921,-0.009 c -1.37887,0.28784 -2.89028,0.58858 -4.53422,0.90222 -1.6174,0.28721 -3.2612,0.54784 -4.93144,0.7819"
       style="font-style:normal;font-weight:bold;font-size:48.9263px;line-height:150%;font-family:'Stranded BRK';-inkscape-font-specification:'Stranded BRK';text-align:center;letter-spacing:0.868037px;word-spacing:0px;text-anchor:middle;fill:#000000;fill-opacity:1;stroke:none"
       id="path3148-2"
       inkscape:connector-curvature="0" />
    <path
       d="m 624.63503,490.82346 c -1.16468,-0.53316 -2.40951,-0.81475 -3.73451,-0.84478 -1.35159,-0.004 -2.72854,-0.43131 -4.13087,-1.2831 1.6513,-3.06981 2.54748,-6.20789 2.68855,-9.41423 0.11427,-3.10042 -0.18195,-6.30793 -0.88866,-9.62254 -0.34014,-1.64402 -0.74657,-3.27497 -1.21928,-4.89284 -0.44623,-1.6178 -0.95866,-3.24902 -1.53732,-4.8937 -0.57858,-1.67114 -1.10423,-3.31566 -1.57695,-4.93354 -0.47272,-1.61786 -0.91893,-3.23565 -1.33865,-4.85342 1.37809,0.004 2.88932,-0.23077 4.53369,-0.70345 1.64451,-0.52563 3.32768,-0.6404 5.04952,-0.34432 0.13024,0.84844 0.28684,1.74992 0.46982,2.70445 0.20946,0.95465 0.44532,1.9491 0.7076,2.98334 0.28882,1.00787 0.60412,2.02902 0.94589,3.06349 0.34175,1.0345 0.73659,2.04263 1.18452,3.02437 0.23914,-0.23787 0.43847,-0.44935 0.59798,-0.63445 0.186,-0.185 0.34543,-0.34358 0.4783,-0.47576 0.004,-1.61658 0.31409,-3.49738 0.92936,-5.64241 0.29434,-1.05927 0.56211,-2.09213 0.80333,-3.09858 0.24118,-1.0064 0.42931,-1.98646 0.56437,-2.94019 1.67122,-0.60507 3.53983,-0.69284 5.60585,-0.26333 2.06597,0.42956 4.0931,0.52773 6.08139,0.29449 0.10478,0.45083 0.20954,0.91489 0.31431,1.39218 0.10478,0.45084 0.20957,0.90165 0.31441,1.35244 -3.14269,5.79554 -6.02159,12.05554 -8.63668,18.78002 -1.30757,3.36226 -2.46955,6.79114 -3.48592,10.28667 -1.01648,3.52204 -1.87428,7.177 -2.57342,10.96491 l -2.14663,-0.006 v 0"
       style="font-style:normal;font-weight:bold;font-size:48.9263px;line-height:150%;font-family:'Stranded BRK';-inkscape-font-specification:'Stranded BRK';text-align:center;letter-spacing:0.868037px;word-spacing:0px;text-anchor:middle;fill:#000000;fill-opacity:1;stroke:none"
       id="path3150-9"
       inkscape:connector-curvature="0" />
    <g
       id="g4812"
       transform="translate(-2.4505307,33.933749)"
       style="fill:#000000">
      <path
         sodipodi:nodetypes="cccccccccccccccccccccsccccccccccccc"
         inkscape:connector-curvature="0"
         id="path3144-1"
         style="font-style:normal;font-weight:bold;font-size:48.9263px;line-height:150%;font-family:'Stranded BRK';-inkscape-font-specification:'Stranded BRK';text-align:center;letter-spacing:0.868037px;word-spacing:0px;text-anchor:middle;fill:#000000;fill-opacity:1;stroke:none"
         d="m 544.27153,441.28194 c -1.20248,-0.31368 -2.34625,-0.62719 -3.43131,-0.94057 -1.05517,-0.49463 -2.15392,-1.13182 -3.29628,-1.9116 -1.11295,-0.80559 -2.23986,-1.83139 -3.38083,-3.0774 -0.26179,-0.77768 -0.71491,-1.38746 -1.35932,-1.82932 -0.64423,-0.49365 -1.1112,-1.37544 -1.40088,-2.64535 l 0.0269,-8.9363 c 0.23684,-0.67288 0.50311,-1.37163 0.79881,-2.09623 0.29579,-0.75044 0.60637,-1.53975 0.93173,-2.36788 0.1474,-0.20684 0.3095,-0.42663 0.4863,-0.65938 0.17682,-0.23266 0.36838,-0.49124 0.5747,-0.77571 l 1.72165,-1.51125 c 1.61713,-0.92865 3.71783,-1.61013 6.30209,-2.04441 2.52555,-0.43438 4.91756,-0.38989 7.17608,0.13345 1.93561,0.52263 3.66546,1.14836 5.18956,1.87718 1.55342,0.72895 3.16512,1.60049 4.83512,2.61458 0.61408,0.75265 1.18398,1.56992 1.70967,2.45182 0.55497,0.882 1.09442,2.06184 1.61832,3.53949 -0.009,2.95289 -0.89753,5.60579 -2.66571,7.95874 -0.85481,1.18953 -1.70952,2.35313 -2.56413,3.49082 -0.85466,1.1377 -1.70926,2.26244 -2.56379,3.37424 -1.14684,0.69666 -2.73404,1.43116 -4.76163,2.20347 -2.0276,0.77229 -4.01001,1.15617 -5.94718,1.15161 m -3.1329,-5.32708 c 2.84098,0.51862 4.81461,0.11377 5.92088,-1.21478 1.16421,-1.32829 2.53027,-2.24658 4.09819,-2.75487 0.64256,-1.48311 1.2268,-2.8384 1.75264,-4.06587 0.58394,-1.2785 1.10961,-2.45473 1.577,-3.52876 0.93477,-2.19916 0.65183,-4.55479 -0.84885,-7.06691 -1.10134,-0.30971 -2.20261,-0.61947 -3.30387,-0.92929 -1.10133,-0.30974 -2.23163,-0.61955 -3.3909,-0.9295 -1.10364,0.45821 -2.23632,0.94191 -3.39807,1.45107 -1.10367,0.4582 -2.20726,0.91635 -3.31086,1.37448 -1.16956,3.06899 -1.84642,6.29268 -2.03062,9.67108 -0.18433,3.42965 0.79372,6.0941 2.93446,7.99335" />
      <path
         sodipodi:nodetypes="ccccccccsscccccccc"
         inkscape:connector-curvature="0"
         id="path4579"
         d="m 544.82016,415.02567 -1.39947,1.22638 1.06787,2.47419 0.96618,2.26212 -0.9916,0.94254 -1.10239,0.80621 -4.23702,-1.6545 -0.89732,1.66181 c 0,0 0.082,0.19971 1.17796,0.88843 1.29656,0.81478 3.62774,1.32422 4.50954,1.61157 0.11073,0.0361 0.3125,0.0335 0.3125,0.0335 l 0.25,-0.12723 1.4375,-1.53125 1.46875,-1.5 0.21875,-0.25 -0.125,-0.28125 -1.13393,-3.63839 z"
         style="color:#000000;font-style:normal;font-variant:normal;font-weight:normal;font-stretch:normal;font-size:medium;line-height:normal;font-family:Sans;-inkscape-font-specification:Sans;text-indent:0;text-align:start;text-decoration:none;text-decoration-line:none;letter-spacing:normal;word-spacing:normal;text-transform:none;writing-mode:lr-tb;direction:ltr;baseline-shift:baseline;text-anchor:start;display:inline;overflow:visible;visibility:visible;fill:#000000;fill-opacity:1;stroke:none;stroke-width:1px;marker:none;enable-background:accumulate" />
      <path
         sodipodi:nodetypes="ccccccccccccc"
         inkscape:connector-curvature="0"
         id="path4581"
         d="m 546.876,414.4922 c 0,1.47987 1.03791,6.81472 1.03791,6.81472 v 0.21875 l 0.1875,0.125 3.15625,2.40625 0.28125,0.21875 1.63833,-0.25063 3.58042,-3.37437 -0.5625,-1.37201 -4.47533,2.3893 -1.82897,-1.69701 c -0.0188,-0.25371 -0.7206,-4.13469 -0.7206,-5.25778 z"
         style="color:#000000;font-style:normal;font-variant:normal;font-weight:normal;font-stretch:normal;font-size:medium;line-height:normal;font-family:Sans;-inkscape-font-specification:Sans;text-indent:0;text-align:start;text-decoration:none;text-decoration-line:none;letter-spacing:normal;word-spacing:normal;text-transform:none;writing-mode:lr-tb;direction:ltr;baseline-shift:baseline;text-anchor:start;display:inline;overflow:visible;visibility:visible;fill:#000000;fill-opacity:1;stroke:none;stroke-width:1px;marker:none;enable-background:accumulate" />
      <path
         sodipodi:nodetypes="cccccccccccccccccc"
         inkscape:connector-curvature="0"
         id="path4583"
         d="m 537.57016,423.68192 -0.3125,2.02625 2.39354,0.62355 0.0834,0.0239 1.89257,1.29848 c 0.64544,1.35949 -0.23057,1.58621 -0.22774,2.51306 l -3.86355,2.20811 0.50293,1.8378 5.1875,-2.78125 0.25,-0.15625 0.31567,-0.69162 -0.31567,-3.90213 v -0.28125 l -0.25,-0.125 -2.78125,-1.6875 -0.0312,-0.0312 h -0.0625 z"
         style="color:#000000;font-style:normal;font-variant:normal;font-weight:normal;font-stretch:normal;font-size:medium;line-height:normal;font-family:Sans;-inkscape-font-specification:Sans;text-indent:0;text-align:start;text-decoration:none;text-decoration-line:none;letter-spacing:normal;word-spacing:normal;text-transform:none;writing-mode:lr-tb;direction:ltr;baseline-shift:baseline;text-anchor:start;display:inline;overflow:visible;visibility:visible;fill:#000000;fill-opacity:1;stroke:none;stroke-width:1px;marker:none;enable-background:accumulate" />
      <path
         sodipodi:nodetypes="ccccccscccccccccccccccc"
         inkscape:connector-curvature="0"
         id="path4585"
         d="m 549.10141,428.86942 -0.3125,0.15625 -3.88839,2.00446 -0.51786,0.55804 v 0.25 c 0,0 -0.0775,1.473 -0.15625,2.9375 -0.0394,0.73225 -0.084,1.44416 -0.125,2 -0.0205,0.27792 -0.0448,0.52835 -0.0625,0.6875 -0.009,0.0796 -0.0259,0.12634 -0.0312,0.15625 -0.004,-0.014 -0.0149,-0.0164 0.125,-0.15625 l 1.8125,0.0402 c 0.11896,-0.12739 0.081,-0.1594 0.0896,-0.19186 0.009,-0.0325 0.018,-0.0454 0.0224,-0.0719 0.009,-0.053 0.0151,-0.12177 0.0224,-0.19186 0.0145,-0.14018 0.0298,-0.30938 0.0448,-0.52762 0.03,-0.43647 0.0613,-1.01829 0.0896,-1.58284 0.0512,-1.02015 0.29634,-1.62369 0.30395,-1.80897 l 2.38365,-1.81239 2.35165,2.06249 1.62946,-1.38392 c -0.94318,-0.88816 -1.04181,-1.52296 -3.04018,-2.72768 l -0.74107,-0.39732 z"
         style="color:#000000;font-style:normal;font-variant:normal;font-weight:normal;font-stretch:normal;font-size:medium;line-height:normal;font-family:Sans;-inkscape-font-specification:Sans;text-indent:0;text-align:start;text-decoration:none;text-decoration-line:none;letter-spacing:normal;word-spacing:normal;text-transform:none;writing-mode:lr-tb;direction:ltr;baseline-shift:baseline;text-anchor:start;display:inline;overflow:visible;visibility:visible;fill:#000000;fill-opacity:1;stroke:none;stroke-width:1px;marker:none;enable-background:accumulate" />
      <path
         sodipodi:nodetypes="ccccccccccccccccccc"
         inkscape:connector-curvature="0"
         id="path4589"
         d="m 548.18761,423.41406 -0.15995,0.13329 -2.0527,1.49287 -0.39717,0.39879 0.53047,0.34765 4.61189,1.51952 0.42518,0.0251 0.13465,-0.42491 v -2.26596 -0.3199 l -0.29324,-0.0799 -2.58586,-0.77309 -0.21327,-0.0533 z m 0.11961,1.24871 c 0.69891,0.0514 1.52107,-0.003 1.80402,0.40695 l -0.284,0.65213 c -0.6687,0.15599 -1.33739,-0.0607 -2.00608,-0.47538 z"
         style="color:#000000;font-style:normal;font-variant:normal;font-weight:normal;font-stretch:normal;font-size:medium;line-height:normal;font-family:Sans;-inkscape-font-specification:Sans;text-indent:0;text-align:start;text-decoration:none;text-decoration-line:none;letter-spacing:normal;word-spacing:normal;text-transform:none;writing-mode:lr-tb;direction:ltr;baseline-shift:baseline;text-anchor:start;display:inline;overflow:visible;visibility:visible;fill:#000000;fill-opacity:1;stroke:none;stroke-width:1px;marker:none;enable-background:accumulate" />
      <path
         sodipodi:nodetypes="ccccccccccccccccccc"
         inkscape:connector-curvature="0"
         id="path4589-1"
         d="m 544.77325,428.94709 -0.0555,-0.20069 -0.52348,-1.97242 -0.0991,-0.55404 0.63403,0.0166 4.34314,0.95557 0.36368,0.22168 -0.13151,0.42589 -1.73777,1.32627 -0.18227,0.26289 -0.2865,-0.10144 -2.11899,-0.30271 -0.20561,-0.0778 z m 1.00003,-0.77947 c 0.49022,0.27371 0.68364,0.31953 1.11708,0.0915 l 0.52057,-0.32031 c -0.34521,-0.4404 -0.9153,-0.55655 -1.60486,-0.50036 z"
         style="color:#000000;font-style:normal;font-variant:normal;font-weight:normal;font-stretch:normal;font-size:medium;line-height:normal;font-family:Sans;-inkscape-font-specification:Sans;text-indent:0;text-align:start;text-decoration:none;text-decoration-line:none;letter-spacing:normal;word-spacing:normal;text-transform:none;writing-mode:lr-tb;direction:ltr;baseline-shift:baseline;text-anchor:start;display:inline;overflow:visible;visibility:visible;fill:#000000;fill-opacity:1;stroke:none;stroke-width:1px;marker:none;enable-background:accumulate" />
    </g>
    <path
       sodipodi:nodetypes="cccccccccccccccc"
       inkscape:connector-curvature="0"
       id="rect5065-9"
       d="m 283.81347,480.36447 c 0.58182,-0.74245 1.75979,-1.11738 2.97387,-1.47006 1.27438,-0.44289 1.90295,0.20437 2.83121,0.34564 0.72666,-7.2493 1.63389,-14.4705 1.24089,-21.89391 0.62575,0.41856 0.20517,-0.165 1.93244,0.68171 1.07192,0.62857 1.5781,1.52825 2.04709,2.44575 1.03519,1.70418 1.95335,3.45033 2.21556,5.43189 -0.14849,1.24263 -0.23335,2.49044 -0.86622,3.69345 l -1.69879,1.56999 c -0.0293,-1.51631 -0.0207,-3.0328 0.26452,-4.67869 -0.0636,-2.32471 -1.40852,-3.37676 -2.12853,-5.2041 l -1.57731,19.50949 -1.23973,2.86813 c -1.75518,0.42151 -3.26509,1.20686 -5.57469,0.80589 -0.91568,-0.6228 -1.0883,-1.27927 -1.35238,-1.93157 0.16057,-0.75411 0.0728,-1.55708 0.93208,-2.17361 z"
       style="color:#000000;display:inline;overflow:visible;visibility:visible;fill:#000000;fill-opacity:1;fill-rule:nonzero;stroke:none;stroke-width:0.264529;marker:none;enable-background:accumulate" />
    <path
       sodipodi:nodetypes="cccccccccccccccccccccccccc"
       inkscape:connector-curvature="0"
       id="rect3921-3"
       d="m 289.58075,421.96954 -7.34349,14.19928 c -0.89762,-0.49134 -1.78387,-0.99292 -3.19509,-1.02025 -1.09018,0.58244 -1.46498,1.41421 -2.03882,2.17664 0.0733,0.70279 0.32376,1.38586 0.99091,2.02263 1.39057,0.85259 2.97321,1.18143 3.51803,0.87119 1.35066,-1.30503 1.85401,-2.05137 2.47064,-3.1474 l 4.51695,-8.93753 4.82564,2.1796 c 2.27247,0.90983 3.81601,2.24243 5.12186,2.96498 l -4.27488,8.13005 c -0.50344,1.82157 -2.63144,-0.075 -3.95312,-0.1263 -0.73755,0.0127 -1.45045,0.20619 -1.76384,1.08754 -0.13778,1.04073 0.51669,1.85044 0.6997,2.153 1.38066,0.6809 1.934,0.74269 2.90083,1.1139 1.07128,-0.28884 1.46431,-0.92847 2.05701,-1.46482 l 1.05569,-1.70172 7.22433,-15.12333 c -4.09453,-1.90686 -6.28692,-2.61657 -12.14649,-5.64967 -0.36355,-0.11476 -0.493,0.11024 -0.66586,0.27221 z m 0.23362,2.87578 c 0.8853,0.0983 1.7397,0.14528 3.26103,1.30021 l 7.04861,3.89118 -0.6611,1.4141 -10.35358,-5.0385 z"
       style="color:#000000;display:inline;overflow:visible;visibility:visible;fill:#000000;fill-opacity:1;fill-rule:nonzero;stroke:none;stroke-width:1;marker:none;enable-background:accumulate" />
    <g
       style="fill:#000000"
       transform="matrix(-0.93700068,-0.15758724,-0.15758724,0.93700068,1022.4365,100.04779)"
       id="g4362">
      <g
         style="fill:#000000"
         id="g4279"
         transform="matrix(1,0,0,0.96845376,-0.98214285,16.40479)">
        <path
           sodipodi:nodetypes="cccccccccccccccccccccsccccccccccccc"
           inkscape:connector-curvature="0"
           id="path3144-9"
           style="font-style:normal;font-weight:bold;font-size:48.9263px;line-height:150%;font-family:'Stranded BRK';-inkscape-font-specification:'Stranded BRK';text-align:center;letter-spacing:0.868037px;word-spacing:0px;text-anchor:middle;fill:#000000;fill-opacity:1;stroke:none"
           d="m 741.48521,536.76675 c -0.96817,-1.01749 -1.87982,-2.0191 -2.73492,-3.00492 -0.71555,-1.38239 -1.38603,-3.0944 -2.01147,-5.13612 -0.58131,-2.09156 -1.04155,-4.67819 -1.38083,-7.75994 0.2226,-1.80451 0.15808,-3.28488 -0.19352,-4.44105 -0.31979,-1.27169 -0.23149,-3.36271 0.26491,-6.27301 l 5.48523,-19.93425 c 0.63951,-1.439 1.3232,-2.92795 2.05107,-4.46682 0.74374,-1.59651 1.5255,-3.27584 2.34523,-5.0379 0.26853,-0.42265 0.55914,-0.87031 0.87186,-1.343 0.31268,-0.4725 0.65541,-0.99893 1.02819,-1.57925 l 2.58379,-2.91775 c 2.12706,-1.64528 4.56952,-2.61131 7.32737,-2.89804 2.70128,-0.30244 4.98122,0.42845 6.83987,2.19264 1.54763,1.67736 2.83382,3.53044 3.85859,5.55924 1.05296,2.03683 2.07502,4.40725 3.06624,7.11115 0.13248,1.84169 0.18287,3.81591 0.15114,5.92269 -0.004,2.11471 -0.20402,4.88998 -0.60143,8.32569 -1.81263,6.587 -4.29031,12.27233 -7.43318,17.05605 -1.55117,2.42872 -3.0864,4.79961 -4.6057,7.11271 -1.51937,2.31311 -3.03075,4.5973 -4.53416,6.85265 -1.53174,1.25177 -3.51132,2.47171 -5.93876,3.65974 -2.42744,1.18797 -4.57401,1.52115 -6.43964,0.99946 m -2.44591,-7.71463 c 2.86643,2.25432 5.41063,1.80252 7.63279,-1.35601 2.28804,-3.13977 4.51011,-5.13526 6.66621,-5.98647 1.8048,-3.71085 3.4507,-7.10282 4.93761,-10.17591 1.59006,-3.18953 3.03975,-6.12754 4.34909,-8.8142 2.6556,-5.5081 4.03502,-11.80885 4.13824,-18.90234 -1.03269,-1.16049 -2.06526,-2.32107 -3.09777,-3.48181 -1.03265,-1.16056 -2.0983,-2.33035 -3.1969,-3.50955 -1.59023,0.86402 -3.232,1.78621 -4.92534,2.76646 -1.59024,0.86398 -3.18036,1.72787 -4.77048,2.59168 -3.55202,7.72882 -6.65372,16.01937 -9.30516,24.87169 -2.68861,8.98743 -3.49817,16.31955 -2.42829,21.99646" />
        <path
           sodipodi:nodetypes="ccccccccsscccccccc"
           inkscape:connector-curvature="0"
           id="path4579-8"
           d="m 750.30985,481.41642 -1.62316,2.06518 2.61359,2.82745 2.37422,2.58861 -1.12044,1.55831 -1.34307,1.4204 -7.07869,-0.6785 -0.68773,2.45466 c 0,0 0.20462,0.22967 2.14077,0.74189 2.29052,0.60598 6.02353,0.46165 7.47374,0.52928 0.18212,0.008 0.48639,-0.0643 0.48639,-0.0643 l 0.32701,-0.25031 1.55778,-2.47195 1.61768,-2.44234 0.23021,-0.39809 -0.30256,-0.32017 -3.18301,-4.30806 z"
           style="color:#000000;font-style:normal;font-variant:normal;font-weight:normal;font-stretch:normal;font-size:medium;line-height:normal;font-family:Sans;-inkscape-font-specification:Sans;text-indent:0;text-align:start;text-decoration:none;text-decoration-line:none;letter-spacing:normal;word-spacing:normal;text-transform:none;writing-mode:lr-tb;direction:ltr;baseline-shift:baseline;text-anchor:start;display:inline;overflow:visible;visibility:visible;fill:#000000;fill-opacity:1;stroke:none;stroke-width:1px;marker:none;enable-background:accumulate" />
        <path
           sodipodi:nodetypes="ccccccccccccc"
           inkscape:connector-curvature="0"
           id="path4581-6"
           d="m 751.87948,475.76347 c 0.49593,2.20838 3.62276,9.76706 3.62276,9.76706 l 0.0733,0.32643 0.28375,0.11392 4.87821,2.36726 0.43614,0.21743 2.02959,-1.00911 3.4882,-6.4234 -1.18546,-1.82935 -4.97283,5.30031 -2.92821,-1.82339 c -0.10928,-0.37132 -2.31526,-5.89075 -2.69164,-7.56669 z"
           style="color:#000000;font-style:normal;font-variant:normal;font-weight:normal;font-stretch:normal;font-size:medium;line-height:normal;font-family:Sans;-inkscape-font-specification:Sans;text-indent:0;text-align:start;text-decoration:none;text-decoration-line:none;letter-spacing:normal;word-spacing:normal;text-transform:none;writing-mode:lr-tb;direction:ltr;baseline-shift:baseline;text-anchor:start;display:inline;overflow:visible;visibility:visible;fill:#000000;fill-opacity:1;stroke:none;stroke-width:1px;marker:none;enable-background:accumulate" />
        <path
           sodipodi:nodetypes="cccccccccccccccccc"
           inkscape:connector-curvature="0"
           id="path4583-5"
           d="m 736.94822,525.72431 1.44094,1.6601 2.72635,-2.49612 0.0968,-0.0858 2.84242,-1.46381 c 1.75087,0.0811 1.14087,1.28262 1.93369,1.8659 l -1.66015,6.06405 2.02798,0.55596 2.38549,-8.02589 0.096,-0.40086 -0.30025,-0.81906 -3.61619,-2.08889 -0.23976,-0.17807 -0.33577,0.2229 -3.98893,2.29086 -0.0551,0.0177 -0.0572,0.0754 z"
           style="color:#000000;font-style:normal;font-variant:normal;font-weight:normal;font-stretch:normal;font-size:medium;line-height:normal;font-family:Sans;-inkscape-font-specification:Sans;text-indent:0;text-align:start;text-decoration:none;text-decoration-line:none;letter-spacing:normal;word-spacing:normal;text-transform:none;writing-mode:lr-tb;direction:ltr;baseline-shift:baseline;text-anchor:start;display:inline;overflow:visible;visibility:visible;fill:#000000;fill-opacity:1;stroke:none;stroke-width:1px;marker:none;enable-background:accumulate" />
        <path
           sodipodi:nodetypes="ccccccscccccccccccccccc"
           inkscape:connector-curvature="0"
           id="path4585-0"
           d="m 748.47476,518.70924 0.1172,-0.46333 1.35852,-5.80487 -0.30628,-0.96516 -0.41844,-0.16492 c 0,0 -2.37149,-1.06116 -4.72724,-2.11816 -1.17786,-0.52853 -2.31536,-1.04963 -3.19601,-1.46363 -0.44031,-0.20698 -0.83002,-0.40021 -1.07495,-0.52561 -0.12232,-0.0629 -0.18024,-0.11319 -0.22367,-0.13907 0.0284,0.006 0.0454,-0.007 0.11004,0.24718 l -2.26438,2.06286 c 0.0691,0.22115 0.16848,0.19854 0.2125,0.22987 0.0436,0.0317 0.054,0.0506 0.0931,0.0732 0.0778,0.0453 0.18546,0.0978 0.29399,0.15241 0.2171,0.10913 0.48171,0.23846 0.82881,0.39973 0.69416,0.32255 1.63008,0.7425 2.54068,1.14759 1.64542,0.73206 2.35844,1.41284 2.65933,1.54387 l 0.14403,3.94352 -6.30276,1.35016 0.34111,2.79145 c 2.62987,-0.50128 3.81195,-0.19618 8.25078,-1.70502 l 1.56334,-0.59213 z"
           style="color:#000000;font-style:normal;font-variant:normal;font-weight:normal;font-stretch:normal;font-size:medium;line-height:normal;font-family:Sans;-inkscape-font-specification:Sans;text-indent:0;text-align:start;text-decoration:none;text-decoration-line:none;letter-spacing:normal;word-spacing:normal;text-transform:none;writing-mode:lr-tb;direction:ltr;baseline-shift:baseline;text-anchor:start;display:inline;overflow:visible;visibility:visible;fill:#000000;fill-opacity:1;stroke:none;stroke-width:1px;marker:none;enable-background:accumulate" />
        <path
           sodipodi:nodetypes="ccccccccccccccccccc"
           inkscape:connector-curvature="0"
           id="path4589-2"
           d="m 758.61178,499.13746 0.33004,0.23678 3.82479,3.145 0.94766,0.55466 0.39662,-1.17208 0.61012,-9.45356 -0.16092,-0.81522 -0.86836,-0.0461 -4.27908,1.1101 -0.60409,0.15671 -0.007,0.5929 -0.19309,5.26193 0.004,0.42884 z m 2.2995,-0.83762 c -0.24533,-1.34501 -0.75084,-2.87093 -0.1153,-3.60611 l 1.37062,0.21683 c 0.62217,1.18637 0.54056,2.55529 0.0851,4.02122 z"
           style="color:#000000;font-style:normal;font-variant:normal;font-weight:normal;font-stretch:normal;font-size:medium;line-height:normal;font-family:Sans;-inkscape-font-specification:Sans;text-indent:0;text-align:start;text-decoration:none;text-decoration-line:none;letter-spacing:normal;word-spacing:normal;text-transform:none;writing-mode:lr-tb;direction:ltr;baseline-shift:baseline;text-anchor:start;display:inline;overflow:visible;visibility:visible;fill:#000000;fill-opacity:1;stroke:none;stroke-width:1px;marker:none;enable-background:accumulate" />
        <path
           sodipodi:nodetypes="ccccccccccccccccccc"
           inkscape:connector-curvature="0"
           id="path4589-1-8"
           d="m 754.14932,509.10379 0.50389,0.10417 4.92757,1.07219 1.33008,0.40659 -0.75118,1.37558 -6.99704,8.47373 -0.89744,0.54987 -0.78832,-0.76927 -0.95772,-5.31648 -0.37264,-0.69716 0.54602,-0.51568 3.05425,-4.31859 0.40285,-0.36445 z m 0.58685,3.07777 c -1.15449,0.7695 -1.47328,1.14319 -1.46041,2.3534 l 0.11759,1.50583 c 1.3576,-0.26271 2.25564,-1.38546 2.90936,-2.96519 z"
           style="color:#000000;font-style:normal;font-variant:normal;font-weight:normal;font-stretch:normal;font-size:medium;line-height:normal;font-family:Sans;-inkscape-font-specification:Sans;text-indent:0;text-align:start;text-decoration:none;text-decoration-line:none;letter-spacing:normal;word-spacing:normal;text-transform:none;writing-mode:lr-tb;direction:ltr;baseline-shift:baseline;text-anchor:start;display:inline;overflow:visible;visibility:visible;fill:#000000;fill-opacity:1;stroke:none;stroke-width:1px;marker:none;enable-background:accumulate" />
        <path
           sodipodi:nodetypes="cccccccccccccccccc"
           inkscape:connector-curvature="0"
           id="path4583-5-6"
           d="m 743.74223,494.09239 -1.29244,2.38809 4.10433,2.01943 0.14229,0.073 2.95617,2.61013 c 0.67911,2.04343 -0.9864,1.87668 -1.31394,3.04429 l -7.779,0.78478 0.24971,2.5717 10.3788,-0.82281 0.50817,-0.0676 0.81908,-0.7073 0.82995,-5.0723 0.101,-0.35384 -0.40726,-0.28617 -4.42348,-3.55807 -0.0451,-0.0552 -0.11288,-0.0323 z"
           style="color:#000000;font-style:normal;font-variant:normal;font-weight:normal;font-stretch:normal;font-size:medium;line-height:normal;font-family:Sans;-inkscape-font-specification:Sans;text-indent:0;text-align:start;text-decoration:none;text-decoration-line:none;letter-spacing:normal;word-spacing:normal;text-transform:none;writing-mode:lr-tb;direction:ltr;baseline-shift:baseline;text-anchor:start;display:inline;overflow:visible;visibility:visible;fill:#000000;fill-opacity:1;stroke:none;stroke-width:1px;marker:none;enable-background:accumulate" />
        <path
           sodipodi:nodetypes="ccccccccccccccccccc"
           inkscape:connector-curvature="0"
           id="path4589-2-0"
           d="m 757.20946,508.54756 0.40487,-0.0327 3.22382,0.23175 2.44894,-1.01738 -0.0952,-0.62813 -3.30528,-5.03902 -2.52256,-1.1652 -1.49311,0.46015 -2.21452,1.75948 -0.35953,0.51012 0.37799,0.45684 3.25474,4.13906 0.28031,0.32457 z m 1.2127,-2.12572 c -1.05676,-0.86747 -2.42897,-1.70473 -2.41945,-2.67649 l 1.1858,-0.72074 c 1.24168,0.5028 2.06448,1.59989 2.6648,3.01269 z"
           style="color:#000000;font-style:normal;font-variant:normal;font-weight:normal;font-stretch:normal;font-size:medium;line-height:normal;font-family:Sans;-inkscape-font-specification:Sans;text-indent:0;text-align:start;text-decoration:none;text-decoration-line:none;letter-spacing:normal;word-spacing:normal;text-transform:none;writing-mode:lr-tb;direction:ltr;baseline-shift:baseline;text-anchor:start;display:inline;overflow:visible;visibility:visible;fill:#000000;fill-opacity:1;stroke:none;stroke-width:1px;marker:none;enable-background:accumulate" />
      </g>
      <path
         d="m 742.94042,530.24808 c 0.12927,0.006 4.1773,0.5532 7.63706,3.7987 4.23598,3.97367 8.95143,0.5162 11.20559,-1.64453 2.39667,-2.29732 7.42446,-6.60176 10.23698,-14.14607 1.41228,-3.7883 3.75471,-9.29773 4.66521,-14.93739 0.9105,-5.63965 0.38907,-11.40952 0.6193,-13.19333 0.92095,-7.13524 -15.10952,-6.07416 -14.79724,-11.29484 0.31812,-5.3182 1.4e-4,2.76573 -0.16385,-3.70212 2.43768,0.7107 16.30019,4.75128 17.34467,8.169 0.13962,2.32787 1.35078,4.95506 1.31734,7.61801 -0.005,2.67298 0.56169,8.31759 0.14292,12.6603 -1.91005,8.32591 -3.66147,14.72116 -6.97326,20.76772 -1.63454,3.06987 -11.36866,12.29119 -12.96962,15.21491 -2.03149,0.26533 -5.10534,2.27977 -7.32823,2.10561 -4.91683,-3.81076 -10.62655,-3.8741 -13.22059,-5.43697"
         style="font-style:normal;font-weight:bold;font-size:48.9263px;line-height:150%;font-family:'Stranded BRK';-inkscape-font-specification:'Stranded BRK';text-align:center;letter-spacing:0.868037px;word-spacing:0px;text-anchor:middle;fill:#000000;fill-opacity:1;stroke:none"
         id="path3144-9-2"
         inkscape:connector-curvature="0"
         sodipodi:nodetypes="csssssscccccccc" />
    </g>
    <path
       sodipodi:nodetypes="ccccccccc"
       inkscape:connector-curvature="0"
       id="path3021-6-5-5-4"
       d="m 256.5994,476.75937 c 1.03962,0.32712 1.14053,-0.0198 1.98232,0.27407 l 12.17871,5.68661 1.05521,0.3572 c 0.1946,0.90802 -0.62736,0.79647 -1.04835,1.08706 l -0.98778,0.62131 -9.67124,-4.90297 -4.89905,-1.91613 z"
       style="color:#000000;font-style:normal;font-variant:normal;font-weight:normal;font-stretch:normal;font-size:medium;line-height:normal;font-family:Sans;-inkscape-font-specification:Sans;text-indent:0;text-align:start;text-decoration:none;text-decoration-line:none;letter-spacing:normal;word-spacing:normal;text-transform:none;writing-mode:lr-tb;direction:ltr;baseline-shift:baseline;text-anchor:start;display:inline;overflow:visible;visibility:visible;fill:#000000;fill-opacity:1;stroke:none;stroke-width:2.1228;marker:none;enable-background:accumulate" />
    <path
       sodipodi:nodetypes="ccccccccc"
       inkscape:connector-curvature="0"
       id="path3021-6-5-5-4-8"
       d="m 258.81043,463.93832 0.74384,0.77367 c 4.27334,2.553 9.46864,3.21138 14.69664,3.80255 l 1.09301,0.21526 -0.23844,1.83258 -1.55514,0.12888 -10.25877,-2.82469 -5.08214,-2.01789 z"
       style="color:#000000;font-style:normal;font-variant:normal;font-weight:normal;font-stretch:normal;font-size:medium;line-height:normal;font-family:Sans;-inkscape-font-specification:Sans;text-indent:0;text-align:start;text-decoration:none;text-decoration-line:none;letter-spacing:normal;word-spacing:normal;text-transform:none;writing-mode:lr-tb;direction:ltr;baseline-shift:baseline;text-anchor:start;display:inline;overflow:visible;visibility:visible;fill:#000000;fill-opacity:1;stroke:none;stroke-width:2.1228;marker:none;enable-background:accumulate" />
    <path
       sodipodi:nodetypes="ccccccccc"
       inkscape:connector-curvature="0"
       id="path3021-6-5-5-4-6"
       d="m 250.7896,433.17834 1.51265,-0.43465 c 4.16009,-1.65908 -0.005,0.69719 4.31076,-2.10693 l 6.31565,-4.03402 3.02395,-1.57248 0.33474,1.7086 c -3.18826,1.96661 -6.49768,3.55633 -9.54811,5.95174 l -4.65371,2.31866 z"
       style="color:#000000;font-style:normal;font-variant:normal;font-weight:normal;font-stretch:normal;font-size:medium;line-height:normal;font-family:Sans;-inkscape-font-specification:Sans;text-indent:0;text-align:start;text-decoration:none;text-decoration-line:none;letter-spacing:normal;word-spacing:normal;text-transform:none;writing-mode:lr-tb;direction:ltr;baseline-shift:baseline;text-anchor:start;display:inline;overflow:visible;visibility:visible;fill:#000000;fill-opacity:1;stroke:none;stroke-width:2.1228;marker:none;enable-background:accumulate" />
    <path
       sodipodi:nodetypes="ccccccccc"
       inkscape:connector-curvature="0"
       id="path3021-6-5-5-4-5"
       d="m 273.21274,439.86196 c -2.51615,0.72801 -5.08874,0.86484 -7.52353,2.44517 l -7.66937,2.89579 -1.01181,0.46615 -0.88074,-1.62462 1.18455,-1.01583 10.00227,-4.34789 5.26605,-0.71889 z"
       style="color:#000000;font-style:normal;font-variant:normal;font-weight:normal;font-stretch:normal;font-size:medium;line-height:normal;font-family:Sans;-inkscape-font-specification:Sans;text-indent:0;text-align:start;text-decoration:none;text-decoration-line:none;letter-spacing:normal;word-spacing:normal;text-transform:none;writing-mode:lr-tb;direction:ltr;baseline-shift:baseline;text-anchor:start;display:inline;overflow:visible;visibility:visible;fill:#000000;fill-opacity:1;stroke:none;stroke-width:2.1228;marker:none;enable-background:accumulate" />
    <path
       sodipodi:nodetypes="ccccccccc"
       inkscape:connector-curvature="0"
       id="path3021-6-5-5-4-0"
       d="m 258.66943,455.54111 1.04475,-0.91917 8.96604,-1.59685 6.72094,-0.58118 0.55837,1.76165 -1.35497,0.77403 -10.78985,1.07289 -5.16027,1.02178 c -0.30066,-0.42683 -0.29395,-0.93836 0.015,-1.53315 z"
       style="color:#000000;font-style:normal;font-variant:normal;font-weight:normal;font-stretch:normal;font-size:medium;line-height:normal;font-family:Sans;-inkscape-font-specification:Sans;text-indent:0;text-align:start;text-decoration:none;text-decoration-line:none;letter-spacing:normal;word-spacing:normal;text-transform:none;writing-mode:lr-tb;direction:ltr;baseline-shift:baseline;text-anchor:start;display:inline;overflow:visible;visibility:visible;fill:#000000;fill-opacity:1;stroke:none;stroke-width:2.1228;marker:none;enable-background:accumulate" />
  </g>
</svg>
